<svg xmlns="http://www.w3.org/2000/svg" width="512" height="512" viewBox="0 0 512 512">
<circle cx="256.000" cy="256.000" r="240.000" fill="#C79A4B" fill-opacity="0.250" />
<circle cx="256.000" cy="256.000" r="238.000" fill="#C79A4B" fill-opacity="0.350" />
<path d="M 256.000 106.000 C 214.000 66.000 235.000 49.000 256.000 26.000 C 277.000 49.000 298.000 66.000 256.000 106.000 Z" style="fill:#917347;stroke:#60281E;stroke-width:1.2;" />
<path d="M 331.000 126.096 C 314.627 70.455 341.313 66.233 371.000 56.814 C 377.687 87.233 387.373 112.455 331.000 126.096 Z" style="fill:#917347;stroke:#60281E;stroke-width:1.2;" />
<path d="M 385.904 181.000 C 399.545 124.627 424.767 134.313 455.186 141.000 C 445.767 170.687 441.545 197.373 385.904 181.000 Z" style="fill:#917347;stroke:#60281E;stroke-width:1.2;" />
<path d="M 406.000 256.000 C 446.000 214.000 463.000 235.000 486.000 256.000 C 463.000 277.000 446.000 298.000 406.000 256.000 Z" style="fill:#917347;stroke:#60281E;stroke-width:1.2;" />
<path d="M 385.904 331.000 C 441.545 314.627 445.767 341.313 455.186 371.000 C 424.767 377.687 399.545 387.373 385.904 331.000 Z" style="fill:#917347;stroke:#60281E;stroke-width:1.2;" />
<path d="M 331.000 385.904 C 387.373 399.545 377.687 424.767 371.000 455.186 C 341.313 445.767 314.627 441.545 331.000 385.904 Z" style="fill:#917347;stroke:#60281E;stroke-width:1.2;" />
<path d="M 256.000 406.000 C 298.000 446.000 277.000 463.000 256.000 486.000 C 235.000 463.000 214.000 446.000 256.000 406.000 Z" style="fill:#917347;stroke:#60281E;stroke-width:1.2;" />
<path d="M 181.000 385.904 C 197.373 441.545 170.687 445.767 141.000 455.186 C 134.313 424.767 124.627 399.545 181.000 385.904 Z" style="fill:#917347;stroke:#60281E;stroke-width:1.2;" />
<path d="M 126.096 331.000 C 112.455 387.373 87.233 377.687 56.814 371.000 C 66.233 341.313 70.455 314.627 126.096 331.000 Z" style="fill:#917347;stroke:#60281E;stroke-width:1.2;" />
<path d="M 106.000 256.000 C 66.000 298.000 49.000 277.000 26.000 256.000 C 49.000 235.000 66.000 214.000 106.000 256.000 Z" style="fill:#917347;stroke:#60281E;stroke-width:1.2;" />
<path d="M 126.096 181.000 C 70.455 197.373 66.233 170.687 56.814 141.000 C 87.233 134.313 112.455 124.627 126.096 181.000 Z" style="fill:#917347;stroke:#60281E;stroke-width:1.2;" />
<path d="M 181.000 126.096 C 124.627 112.455 134.313 87.233 141.000 56.814 C 170.687 66.233 197.373 70.455 181.000 126.096 Z" style="fill:#917347;stroke:#60281E;stroke-width:1.2;" />
<circle cx="256.000" cy="56.000" r="3.200" fill="#F8B500" fill-opacity="1.000" />
<circle cx="290.730" cy="59.038" r="3.200" fill="#F8B500" fill-opacity="1.000" />
<circle cx="324.404" cy="68.061" r="3.200" fill="#F8B500" fill-opacity="1.000" />
<circle cx="356.000" cy="82.795" r="3.200" fill="#F8B500" fill-opacity="1.000" />
<circle cx="384.558" cy="102.791" r="3.200" fill="#F8B500" fill-opacity="1.000" />
<circle cx="409.209" cy="127.442" r="3.200" fill="#F8B500" fill-opacity="1.000" />
<circle cx="429.205" cy="156.000" r="3.200" fill="#F8B500" fill-opacity="1.000" />
<circle cx="443.939" cy="187.596" r="3.200" fill="#F8B500" fill-opacity="1.000" />
<circle cx="452.962" cy="221.270" r="3.200" fill="#F8B500" fill-opacity="1.000" />
<circle cx="456.000" cy="256.000" r="3.200" fill="#F8B500" fill-opacity="1.000" />
<circle cx="452.962" cy="290.730" r="3.200" fill="#F8B500" fill-opacity="1.000" />
<circle cx="443.939" cy="324.404" r="3.200" fill="#F8B500" fill-opacity="1.000" />
<circle cx="429.205" cy="356.000" r="3.200" fill="#F8B500" fill-opacity="1.000" />
<circle cx="409.209" cy="384.558" r="3.200" fill="#F8B500" fill-opacity="1.000" />
<circle cx="384.558" cy="409.209" r="3.200" fill="#F8B500" fill-opacity="1.000" />
<circle cx="356.000" cy="429.205" r="3.200" fill="#F8B500" fill-opacity="1.000" />
<circle cx="324.404" cy="443.939" r="3.200" fill="#F8B500" fill-opacity="1.000" />
<circle cx="290.730" cy="452.962" r="3.200" fill="#F8B500" fill-opacity="1.000" />
<circle cx="256.000" cy="456.000" r="3.200" fill="#F8B500" fill-opacity="1.000" />
<circle cx="221.270" cy="452.962" r="3.200" fill="#F8B500" fill-opacity="1.000" />
<circle cx="187.596" cy="443.939" r="3.200" fill="#F8B500" fill-opacity="1.000" />
<circle cx="156.000" cy="429.205" r="3.200" fill="#F8B500" fill-opacity="1.000" />
<circle cx="127.442" cy="409.209" r="3.200" fill="#F8B500" fill-opacity="1.000" />
<circle cx="102.791" cy="384.558" r="3.200" fill="#F8B500" fill-opacity="1.000" />
<circle cx="82.795" cy="356.000" r="3.200" fill="#F8B500" fill-opacity="1.000" />
<circle cx="68.061" cy="324.404" r="3.200" fill="#F8B500" fill-opacity="1.000" />
<circle cx="59.038" cy="290.730" r="3.200" fill="#F8B500" fill-opacity="1.000" />
<circle cx="56.000" cy="256.000" r="3.200" fill="#F8B500" fill-opacity="1.000" />
<circle cx="59.038" cy="221.270" r="3.200" fill="#F8B500" fill-opacity="1.000" />
<circle cx="68.061" cy="187.596" r="3.200" fill="#F8B500" fill-opacity="1.000" />
<circle cx="82.795" cy="156.000" r="3.200" fill="#F8B500" fill-opacity="1.000" />
<circle cx="102.791" cy="127.442" r="3.200" fill="#F8B500" fill-opacity="1.000" />
<circle cx="127.442" cy="102.791" r="3.200" fill="#F8B500" fill-opacity="1.000" />
<circle cx="156.000" cy="82.795" r="3.200" fill="#F8B500" fill-opacity="1.000" />
<circle cx="187.596" cy="68.061" r="3.200" fill="#F8B500" fill-opacity="1.000" />
<circle cx="221.270" cy="59.038" r="3.200" fill="#F8B500" fill-opacity="1.000" />
<path d="M 256.000 146.000 C 236.000 111.000 246.000 94.000 256.000 76.000 C 266.000 94.000 276.000 111.000 256.000 146.000 Z" style="fill:#B7282E;stroke:#522F60;stroke-width:0.8;" />
<path d="M 284.470 149.748 C 274.210 110.764 288.269 96.932 302.587 82.133 C 307.588 102.108 312.847 121.117 284.470 149.748 Z" style="fill:#B7282E;stroke:#522F60;stroke-width:0.8;" />
<path d="M 311.000 160.737 C 311.179 120.426 328.340 110.704 346.000 100.115 C 345.660 120.704 345.821 140.426 311.000 160.737 Z" style="fill:#B7282E;stroke:#522F60;stroke-width:0.8;" />
<path d="M 333.782 178.218 C 344.388 139.327 363.480 134.378 383.279 128.721 C 377.622 148.520 372.673 167.612 333.782 178.218 Z" style="fill:#B7282E;stroke:#522F60;stroke-width:0.8;" />
<path d="M 351.263 201.000 C 371.574 166.179 391.296 166.340 411.885 166.000 C 401.296 183.660 391.574 200.821 351.263 201.000 Z" style="fill:#B7282E;stroke:#522F60;stroke-width:0.8;" />
<path d="M 362.252 227.530 C 390.883 199.153 409.892 204.412 429.867 209.413 C 415.068 223.731 401.236 237.790 362.252 227.530 Z" style="fill:#B7282E;stroke:#522F60;stroke-width:0.8;" />
<path d="M 366.000 256.000 C 401.000 236.000 418.000 246.000 436.000 256.000 C 418.000 266.000 401.000 276.000 366.000 256.000 Z" style="fill:#B7282E;stroke:#522F60;stroke-width:0.8;" />
<path d="M 362.252 284.470 C 401.236 274.210 415.068 288.269 429.867 302.587 C 409.892 307.588 390.883 312.847 362.252 284.470 Z" style="fill:#B7282E;stroke:#522F60;stroke-width:0.8;" />
<path d="M 351.263 311.000 C 391.574 311.179 401.296 328.340 411.885 346.000 C 391.296 345.660 371.574 345.821 351.263 311.000 Z" style="fill:#B7282E;stroke:#522F60;stroke-width:0.8;" />
<path d="M 333.782 333.782 C 372.673 344.388 377.622 363.480 383.279 383.279 C 363.480 377.622 344.388 372.673 333.782 333.782 Z" style="fill:#B7282E;stroke:#522F60;stroke-width:0.8;" />
<path d="M 311.000 351.263 C 345.821 371.574 345.660 391.296 346.000 411.885 C 328.340 401.296 311.179 391.574 311.000 351.263 Z" style="fill:#B7282E;stroke:#522F60;stroke-width:0.8;" />
<path d="M 284.470 362.252 C 312.847 390.883 307.588 409.892 302.587 429.867 C 288.269 415.068 274.210 401.236 284.470 362.252 Z" style="fill:#B7282E;stroke:#522F60;stroke-width:0.8;" />
<path d="M 256.000 366.000 C 276.000 401.000 266.000 418.000 256.000 436.000 C 246.000 418.000 236.000 401.000 256.000 366.000 Z" style="fill:#B7282E;stroke:#522F60;stroke-width:0.8;" />
<path d="M 227.530 362.252 C 237.790 401.236 223.731 415.068 209.413 429.867 C 204.412 409.892 199.153 390.883 227.530 362.252 Z" style="fill:#B7282E;stroke:#522F60;stroke-width:0.8;" />
<path d="M 201.000 351.263 C 200.821 391.574 183.660 401.296 166.000 411.885 C 166.340 391.296 166.179 371.574 201.000 351.263 Z" style="fill:#B7282E;stroke:#522F60;stroke-width:0.8;" />
<path d="M 178.218 333.782 C 167.612 372.673 148.520 377.622 128.721 383.279 C 134.378 363.480 139.327 344.388 178.218 333.782 Z" style="fill:#B7282E;stroke:#522F60;stroke-width:0.8;" />
<path d="M 160.737 311.000 C 140.426 345.821 120.704 345.660 100.115 346.000 C 110.704 328.340 120.426 311.179 160.737 311.000 Z" style="fill:#B7282E;stroke:#522F60;stroke-width:0.8;" />
<path d="M 149.748 284.470 C 121.117 312.847 102.108 307.588 82.133 302.587 C 96.932 288.269 110.764 274.210 149.748 284.470 Z" style="fill:#B7282E;stroke:#522F60;stroke-width:0.8;" />
<path d="M 146.000 256.000 C 111.000 276.000 94.000 266.000 76.000 256.000 C 94.000 246.000 111.000 236.000 146.000 256.000 Z" style="fill:#B7282E;stroke:#522F60;stroke-width:0.8;" />
<path d="M 149.748 227.530 C 110.764 237.790 96.932 223.731 82.133 209.413 C 102.108 204.412 121.117 199.153 149.748 227.530 Z" style="fill:#B7282E;stroke:#522F60;stroke-width:0.8;" />
<path d="M 160.737 201.000 C 120.426 200.821 110.704 183.660 100.115 166.000 C 120.704 166.340 140.426 166.179 160.737 201.000 Z" style="fill:#B7282E;stroke:#522F60;stroke-width:0.8;" />
<path d="M 178.218 178.218 C 139.327 167.612 134.378 148.520 128.721 128.721 C 148.520 134.378 167.612 139.327 178.218 178.218 Z" style="fill:#B7282E;stroke:#522F60;stroke-width:0.8;" />
<path d="M 201.000 160.737 C 166.179 140.426 166.340 120.704 166.000 100.115 C 183.660 110.704 200.821 120.426 201.000 160.737 Z" style="fill:#B7282E;stroke:#522F60;stroke-width:0.8;" />
<path d="M 227.530 149.748 C 199.153 121.117 204.412 102.108 209.413 82.133 C 223.731 96.932 237.790 110.764 227.530 149.748 Z" style="fill:#B7282E;stroke:#522F60;stroke-width:0.8;" />
<circle cx="256.000" cy="256.000" r="112.000" fill="#F08300" fill-opacity="0.120" />
<circle cx="256.000" cy="136.000" r="2.800" fill="#8E354A" fill-opacity="1.000" />
<circle cx="287.058" cy="140.089" r="2.800" fill="#8E354A" fill-opacity="1.000" />
<circle cx="316.000" cy="152.077" r="2.800" fill="#8E354A" fill-opacity="1.000" />
<circle cx="340.853" cy="171.147" r="2.800" fill="#8E354A" fill-opacity="1.000" />
<circle cx="359.923" cy="196.000" r="2.800" fill="#8E354A" fill-opacity="1.000" />
<circle cx="371.911" cy="224.942" r="2.800" fill="#8E354A" fill-opacity="1.000" />
<circle cx="376.000" cy="256.000" r="2.800" fill="#8E354A" fill-opacity="1.000" />
<circle cx="371.911" cy="287.058" r="2.800" fill="#8E354A" fill-opacity="1.000" />
<circle cx="359.923" cy="316.000" r="2.800" fill="#8E354A" fill-opacity="1.000" />
<circle cx="340.853" cy="340.853" r="2.800" fill="#8E354A" fill-opacity="1.000" />
<circle cx="316.000" cy="359.923" r="2.800" fill="#8E354A" fill-opacity="1.000" />
<circle cx="287.058" cy="371.911" r="2.800" fill="#8E354A" fill-opacity="1.000" />
<circle cx="256.000" cy="376.000" r="2.800" fill="#8E354A" fill-opacity="1.000" />
<circle cx="224.942" cy="371.911" r="2.800" fill="#8E354A" fill-opacity="1.000" />
<circle cx="196.000" cy="359.923" r="2.800" fill="#8E354A" fill-opacity="1.000" />
<circle cx="171.147" cy="340.853" r="2.800" fill="#8E354A" fill-opacity="1.000" />
<circle cx="152.077" cy="316.000" r="2.800" fill="#8E354A" fill-opacity="1.000" />
<circle cx="140.089" cy="287.058" r="2.800" fill="#8E354A" fill-opacity="1.000" />
<circle cx="136.000" cy="256.000" r="2.800" fill="#8E354A" fill-opacity="1.000" />
<circle cx="140.089" cy="224.942" r="2.800" fill="#8E354A" fill-opacity="1.000" />
<circle cx="152.077" cy="196.000" r="2.800" fill="#8E354A" fill-opacity="1.000" />
<circle cx="171.147" cy="171.147" r="2.800" fill="#8E354A" fill-opacity="1.000" />
<circle cx="196.000" cy="152.077" r="2.800" fill="#8E354A" fill-opacity="1.000" />
<circle cx="224.942" cy="140.089" r="2.800" fill="#8E354A" fill-opacity="1.000" />
<polygon points="256.000,176.000 238.000,224.823 186.718,216.000 220.000,256.000 186.718,296.000 238.000,287.177 256.000,336.000 274.000,287.177 325.282,296.000 292.000,256.000 325.282,216.000 274.000,224.823" fill="#522F60" />
<polygon points="256.000,192.000 244.000,235.215 200.574,224.000 232.000,256.000 200.574,288.000 244.000,276.785 256.000,320.000 268.000,276.785 311.426,288.000 280.000,256.000 311.426,224.000 268.000,235.215" fill="#8E354A" />
<circle cx="256.000" cy="256.000" r="18.000" fill="#F8B500" fill-opacity="1.000" />
<circle cx="256.000" cy="256.000" r="6.000" fill="#60281E" fill-opacity="1.000" />
<circle cx="256.0" cy="256.0" r="250" fill="none" stroke="#C79A4B" stroke-opacity="0.35" stroke-width="2" />
</svg>
